# xmcd
#
# Track frame offsets:
#	150
#	18695
#	30328
#	58300
#	72631
#	100018
#	123658
#	140745
#	161914
#	182379
#
# Disc length: 3024 seconds
#
# Revision: 1
# Processed by: cddbd v1.4PL0 Copyright (c) Steve Scherf et al.
# Submitted via: audiograbber 1.80
#
DISCID=920bce0a
DTITLE=August Project - Looking for Some Fiction
DYEAR=1900
DGENRE=
TTITLE0=Mighty Mighty
TTITLE1=Don't You Ever
TTITLE2=Bittersweet
TTITLE3=Beat Feet
TTITLE4=Parked Car
TTITLE5=Need a Little Soul
TTITLE6=Fake ID
TTITLE7=From Here to the Moon
TTITLE8=Silhouettes
TTITLE9=No Ordinary Life
EXTD=
EXTT0=
EXTT1=
EXTT2=
EXTT3=
EXTT4=
EXTT5=
EXTT6=
EXTT7=
EXTT8=
EXTT9=
PLAYORDER=
